Coordinates
version=1
nRows=32
nColumns=12
inDegrees=yes

Units are S.I. units (second, meters, Newtons, ...)
Angles are in degrees

endheader
time	SC_y	SC_z	SC_x	AC_y	AC_z	AC_x	GH_y	GH_z	GH_yy	EL_x	PS_y
       0.0              -37.33          28.34          78.53          64.62         -3.676          12.76         -102.3          37.69          66.14          36.32          36.19
  0.001723              -37.33          28.34          78.52          64.61         -3.677          12.76         -102.3          37.69          66.15          36.32          36.21
  0.003446              -37.33          28.34          78.51          64.61         -3.679          12.76         -102.2          37.68          66.17          36.32          36.23
  0.005169              -37.34          28.33           78.5          64.61          -3.68          12.76         -102.2          37.68          66.19          36.32          36.24
  0.006892              -37.34          28.33          78.49           64.6         -3.681          12.76         -102.1          37.67          66.21          36.32          36.26
  0.008616              -37.34          28.33          78.47           64.6         -3.683          12.76         -102.1          37.66          66.23          36.32          36.28
   0.01034              -37.34          28.33          78.46           64.6         -3.684          12.76         -102.0          37.66          66.25          36.32           36.3
   0.01206              -37.35          28.32          78.45          64.59         -3.686          12.76         -102.0          37.65          66.28          36.32          36.32
   0.01378              -37.35          28.32          78.43          64.59         -3.688          12.76         -101.9          37.64           66.3          36.32          36.35
   0.01551              -37.35          28.32          78.42          64.58          -3.69          12.76         -101.9          37.63          66.33          36.32          36.37
   0.01723              -37.36          28.31           78.4          64.58         -3.692          12.76         -101.8          37.62          66.36          36.32           36.4
   0.01895              -37.36          28.31          78.38          64.57         -3.694          12.76         -101.7          37.61          66.39          36.32          36.43
   0.02068              -37.36           28.3          78.36          64.56         -3.696          12.76         -101.6           37.6          66.42          36.32          36.46
    0.0224              -37.37           28.3          78.34          64.56         -3.699          12.76         -101.6          37.58          66.46          36.32           36.5
   0.02412              -37.37          28.29          78.31          64.55         -3.701          12.76         -101.5          37.57           66.5          36.32          36.53
   0.02585              -37.38          28.29          78.29          64.54         -3.704          12.76         -101.4          37.56          66.54          36.32          36.58
   0.02757              -37.38          28.28          78.26          64.53         -3.708          12.75         -101.3          37.54          66.59          36.32          36.62
   0.02929              -37.39          28.28          78.23          64.52         -3.711          12.75         -101.1          37.52          66.64          36.32          36.67
   0.03102               -37.4          28.27           78.2          64.51         -3.715          12.75         -101.0           37.5           66.7          36.32          36.72
   0.03274               -37.4          28.26          78.16           64.5         -3.719          12.75         -100.9          37.48          66.76          36.32          36.78
   0.03446              -37.41          28.25          78.12          64.49         -3.724          12.75         -100.7          37.46          66.82          36.32          36.84
   0.03619              -37.42          28.24          78.08          64.48         -3.729          12.75         -100.5          37.43           66.9          36.32          36.91
   0.03791              -37.43          28.23          78.03          64.46         -3.735          12.75         -100.4          37.41          66.98          36.32          36.99
   0.03963              -37.44          28.22          77.97          64.45         -3.741          12.75         -100.1          37.38          67.07          36.32          37.07
   0.04135              -37.45          28.21          77.91          64.43         -3.748          12.75         -99.92          37.34          67.17          36.33          37.17
   0.04308              -37.46          28.19          77.85          64.41         -3.756          12.75         -99.66           37.3          67.28          36.33          37.27
    0.0448              -37.48          28.18          77.77          64.39         -3.764          12.74         -99.37          37.26          67.41          36.33          37.39
   0.04652              -37.49          28.16          77.69          64.36         -3.774          12.74         -99.04          37.21          67.55          36.33          37.52
   0.04825              -37.51          28.14          77.59          64.33         -3.785          12.74         -98.67          37.16          67.71          36.33          37.67
   0.04997              -37.53          28.12          77.48           64.3         -3.798          12.74         -98.25           37.1          67.89          36.33          37.84
   0.05169              -37.56          28.09          77.36          64.26         -3.812          12.74         -97.77          37.03           68.1          36.33          38.04
   0.05342              -37.59          28.06          77.22          64.22         -3.828          12.73         -97.22          36.95          68.33          36.33          38.26
